<?xml version="1.0" encoding="utf-8"?>
<!-- Generator: Adobe Illustrator 24.0.1, SVG Export Plug-In . SVG Version: 6.00 Build 0)  -->
<svg version="1.1" id="Layer_1" xmlns="http://www.w3.org/2000/svg" xmlns:xlink="http://www.w3.org/1999/xlink" x="0px" y="0px"
	 viewBox="0 0 250 38" style="enable-background:new 0 0 250 38;" xml:space="preserve">
<style type="text/css">
	.st0{display:none;}
	.st1{display:inline;}
	.st2{display:inline;fill:#FFFFFF;}
	.st3{display:inline;fill:#EF4444;}
	.st4{fill:#F4F1ED;}
	.st5{fill:#F87171;}
</style>
<g class="st0">
	<rect class="st1" width="250" height="67"/>
</g>
<g class="st0">
	<path class="st2" d="M6.6,60.7V10.3H17l4.6,24.1V10.3h9.7v50.4h-9.8l-5-25.2v25.2H6.6z"/>
	<path class="st2" d="M35.8,60.7V10.3h20.1v9.7H46v9.8h9.5v9.5H46v11.5h10.6v9.8H35.8z"/>
	<path class="st2" d="M63.9,60.7l-5.4-50.4h9.8l2.8,31.8l2.8-31.8h9.4L86,42.1l2.7-31.8h10l-5.5,50.4H81.1l-2.5-24.2l-2.4,24.2H63.9
		z"/>
	<path class="st2" d="M113.6,61.2c-4.6,0-7.9-1.1-9.9-3.4s-3-5.9-3-10.9v-4.9h10v6.3c0,1.2,0.2,2.1,0.5,2.7c0.4,0.7,1,1,1.8,1
		c0.9,0,1.5-0.3,1.9-0.8c0.4-0.5,0.5-1.4,0.5-2.6c0-1.5-0.2-2.8-0.5-3.9c-0.3-1-0.8-2-1.6-3c-0.8-0.9-1.8-2-3.1-3.3l-4.5-4.3
		c-3.4-3.2-5.1-6.8-5.1-10.9c0-4.3,1-7.6,3-9.8c2-2.3,4.9-3.4,8.7-3.4c4.6,0,7.9,1.2,9.8,3.7s2.9,6.2,2.9,11.2h-10.2v-3.5
		c0-0.7-0.2-1.2-0.6-1.6c-0.4-0.4-0.9-0.6-1.6-0.6c-0.8,0-1.4,0.2-1.8,0.7c-0.4,0.4-0.6,1-0.6,1.7c0,0.7,0.2,1.5,0.6,2.3
		c0.4,0.8,1.1,1.8,2.3,2.8l5.8,5.6c1.2,1.1,2.2,2.3,3.2,3.5c1,1.2,1.8,2.7,2.3,4.3s0.9,3.6,0.9,6c0,4.7-0.9,8.4-2.6,11.1
		C121,59.8,117.9,61.2,113.6,61.2z"/>
	<path class="st2" d="M128.7,60.7V10.3h13.8c3.6,0,6.4,1,8.2,3c1.8,2,2.7,5,2.7,8.8v23.6c0,4.8-0.8,8.5-2.5,11
		c-1.7,2.6-4.6,3.9-8.8,3.9H128.7z M138.8,51.8h1.7c1.8,0,2.8-0.9,2.8-2.7v-26c0-1.7-0.2-2.8-0.7-3.2c-0.4-0.5-1.4-0.7-2.7-0.7h-1.1
		V51.8z"/>
	<path class="st3" d="M156.2,60.7l4.9-50.4h17.1l4.8,50.4h-9.5l-0.7-8.1h-6.1l-0.6,8.1H156.2z M167.3,44.5h4.6l-2.2-25.6h-0.5
		L167.3,44.5z"/>
	<path class="st3" d="M185.8,15.1V6.6H196v8.5H185.8z M185.8,60.7V17.8H196v42.9H185.8z"/>
	<path class="st2" d="M200.2,60.7V10.3h10.1v41.8h10.4v8.6H200.2z"/>
	<path class="st2" d="M227.8,60.7V44.1l-8-33.8h10l2.8,17.1l2.8-17.1h10l-8,33.8v16.6H227.8z"/>
</g>
<g>
	<path class="st4" d="M14.2,31.4h-10v-5.9h2.1V12.8H4.2V7h11.6l8.9,12.8v-6.9h-2V7h9.9v5.9h-2.1v18.9h-8.1L12.1,17v8.6h2.2V31.4z"/>
	<path class="st4" d="M58.7,31.4H35.4v-5.9h1.9V12.8h-1.9V7h23.4v7.8h-6.4v-2h-5.6v3.8h4.8v5h-4.8v4h5.6v-2h6.4V31.4z"/>
	<path class="st4" d="M77.3,31.7h-7.7l-6.9-18.8H61V7h12.7v5.9h-1.8l2.9,10.5l3.7-10.5h-1.8V7h10.7v5.9h-1.8l3.7,10.5l2.9-10.5h-1.8
		V7h9.9v5.9h-1.7l-7,18.8h-7.6l-3.3-9.4L77.3,31.7z"/>
	<path class="st4" d="M107.6,31.4h-5.5v-7.8h5.5c0.7,2.1,1.9,3.2,3.7,3.2c1.3,0,2-0.5,2-1.6c0-0.6-0.2-1-0.7-1.4
		c-0.5-0.4-1.5-0.9-3.1-1.7c-2-0.9-3.5-1.7-4.4-2.3c-0.9-0.6-1.6-1.4-2.3-2.5c-0.6-1-0.9-2.2-0.9-3.5c0-2.3,0.7-4,2.2-5.3
		c1.5-1.3,3.3-1.9,5.4-1.9s4,0.6,5.4,1.8V7h5.5v7h-5.5c-0.7-1.9-1.9-2.9-3.6-2.9c-1.2,0-1.8,0.5-1.8,1.5c0,0.5,0.2,0.9,0.5,1.1
		c0.3,0.3,1.4,0.8,3.2,1.7c2.4,1.2,4,2.1,4.8,2.6c0.4,0.3,0.8,0.6,1.3,1.1s0.8,1,1.1,1.5c0.6,1.1,1,2.4,1,3.7c0,2.1-0.8,3.8-2.3,5.2
		c-1.5,1.4-3.4,2.2-5.8,2.2c-2.2,0-4.1-0.6-5.9-1.9V31.4z"/>
	<path class="st4" d="M136.2,31.4h-11.4v-5.9h1.9V12.8h-1.9V7h11.7c2.7,0,4.9,0.2,6.5,0.5c1.7,0.3,3.3,1,4.8,2
		c1.5,1,2.7,2.4,3.5,4.2c0.4,0.8,0.7,1.7,1,2.7s0.3,2,0.3,3c0,2.1-0.5,4.1-1.4,5.8c-0.9,1.7-2,3.1-3.4,4c-1.3,0.9-2.8,1.5-4.4,1.8
		C142,31.3,139.5,31.4,136.2,31.4z M136.2,12.8v12.7h0.9c2.2,0,3.7-0.6,4.3-1.8c0.7-1.2,1-2.7,1-4.5c0-1.1-0.1-2.1-0.4-3.2
		c-0.3-1.1-0.8-1.9-1.5-2.4c-0.7-0.6-2-0.9-3.9-0.9H136.2z"/>
	<path class="st5" d="M163.5,31.4h-9.7v-5.9h1.9l4.6-12.7h-2V7h17.6v5.9h-2l4.7,12.7h1.8v5.9h-12.8v-5.4h2.1l-0.9-3.1h-6.3l-1.1,3.1
		h2V31.4z M165.8,13.2l-2.3,6.8h4.4L165.8,13.2z"/>
	<path class="st5" d="M196,31.4H182v-5.9h2.3V12.8H182V7H196v5.9h-2.2v12.7h2.2V31.4z"/>
	<path class="st4" d="M221.8,31.4h-23.3v-5.9h2.2V12.8h-2.2V7h14v5.9h-2.3v12.7h5.8v-3.9h5.8V31.4z"/>
	<path class="st4" d="M239.5,31.4h-13.4v-5.9h2v-3.9l-6.2-8.9h-1.7V7h12.8v5.9h-1.5l2.6,5l3.1-5h-1.5V7h9.4v5.9h-1.5l-6.2,8.9v3.9
		h1.9V31.4z"/>
</g>
</svg>
