<?xml version="1.0" encoding="utf-8"?>
<!-- Generator: Adobe Illustrator 24.0.1, SVG Export Plug-In . SVG Version: 6.00 Build 0)  -->
<svg version="1.1" id="Layer_1" xmlns="http://www.w3.org/2000/svg" xmlns:xlink="http://www.w3.org/1999/xlink" x="0px" y="0px"
	 viewBox="0 0 200 200" style="enable-background:new 0 0 200 200;" xml:space="preserve">
<style type="text/css">
	.st0{fill:#D4D4D4;}
	.st1{fill:#171717;}
</style>
<rect class="st0" width="200" height="200"/>
<g>
	<g>
		<g>
			<path class="st1" d="M163.5,106.5c1.2,0,2.1-0.9,2.1-2.1V76.6c0-6.1-4.9-11-11-11h-15.7V52.1c0-1.2-0.9-2.1-2.1-2.1H36.5
				c-1.2,0-2.1,0.9-2.1,2.1v63.5c0,1.2,0.9,2.1,2.1,2.1c1.2,0,2.1-0.9,2.1-2.1v-28h96.1v46.7v0.2c0,4.4,1.9,8.5,4.9,11.3H49.9
				c-6.2,0-11.3-5.1-11.3-11.3v-7.8c0-1.2-0.9-2.1-2.1-2.1c-1.2,0-2.1,0.9-2.1,2.1v7.8c0,8.5,6.9,15.5,15.5,15.5h100.3c0,0,0,0,0,0
				c0,0,0,0,0,0c4.1,0,7.9-1.6,10.8-4.4c3-2.9,4.6-6.8,4.6-11v-18.9c0-1.2-0.9-2.1-2.1-2.1s-2.1,0.9-2.1,2.1v18.9c0,3-1.2,5.9-3.4,8
				c-2.2,2.1-5,3.3-8,3.2c-0.4,0-0.9,0-1.3-0.1c-5.5-0.7-9.9-5.6-9.9-11.4v-15.5h6.8c1.2,0,2.1-0.9,2.1-2.1V76.6
				c0-3.8,3.1-6.8,6.8-6.8c3.8,0,6.8,3.1,6.8,6.8v27.9C161.4,105.6,162.4,106.5,163.5,106.5z M134.7,83.4H38.6V54.2h96.1V83.4z
				 M143.6,76.6v38h-4.7V69.8h7.1C144.5,71.7,143.6,74,143.6,76.6z"/>
		</g>
	</g>
	<g>
		<g>
			<path class="st1" d="M63.2,58.9c-1.2,0-2.1,0.9-2.1,2.1v10l-9.7-11.3c-1.2-1.4-3.7-0.5-3.7,1.4v15.6c0,1.2,0.9,2.1,2.1,2.1
				c1.2,0,2.1-0.9,2.1-2.1v-10L61.6,78c1.2,1.4,3.7,0.5,3.7-1.4V61C65.3,59.8,64.4,58.9,63.2,58.9z"/>
		</g>
	</g>
	<g>
		<g>
			<path class="st1" d="M81.1,74.5H72v-4.7h4.6c1.2,0,2.1-0.9,2.1-2.1c0-1.2-0.9-2.1-2.1-2.1H72v-2.5h9.1c1.2,0,2.1-0.9,2.1-2.1
				c0-1.2-0.9-2.1-2.1-2.1H69.9c-1.2,0-2.1,0.9-2.1,2.1v15.6c0,1.2,0.9,2.1,2.1,2.1h11.1c1.2,0,2.1-0.9,2.1-2.1S82.2,74.5,81.1,74.5
				z"/>
		</g>
	</g>
	<g>
		<g>
			<path class="st1" d="M106.1,59c-1.1-0.3-2.3,0.3-2.6,1.4l-2.8,9.7l-2.2-5.5c-0.3-0.8-1.1-1.3-1.9-1.3c-0.9,0-1.6,0.5-1.9,1.3
				l-2.2,5.5l-2.8-9.7c-0.3-1.1-1.5-1.8-2.6-1.4c-1.1,0.3-1.8,1.5-1.4,2.6l4.5,15.6c0.2,0.9,1,1.5,1.9,1.5c0.9,0,1.7-0.5,2-1.3
				l2.5-6.3l2.5,6.3c0.3,0.8,1.1,1.3,1.9,1.3c0,0,0.1,0,0.1,0c0.9,0,1.7-0.7,1.9-1.5l4.5-15.6C107.9,60.5,107.3,59.3,106.1,59z"/>
		</g>
	</g>
	<g>
		<g>
			<path class="st1" d="M123.4,67.8h-9.1v-4.7h9.1c1.2,0,2.1-0.9,2.1-2.1c0-1.2-0.9-2.1-2.1-2.1h-11.1c-1.2,0-2.1,0.9-2.1,2.1v8.9
				c0,1.2,0.9,2.1,2.1,2.1h9.1v2.5h-9.1c-1.2,0-2.1,0.9-2.1,2.1c0,1.2,0.9,2.1,2.1,2.1h11.1c1.2,0,2.1-0.9,2.1-2.1v-6.7
				C125.5,68.8,124.6,67.8,123.4,67.8z"/>
		</g>
	</g>
	<g>
		<g>
			<path class="st1" d="M76.6,92.3H49.9c-1.2,0-2.1,0.9-2.1,2.1v22.3c0,1.2,0.9,2.1,2.1,2.1h26.7c1.2,0,2.1-0.9,2.1-2.1V94.4
				C78.7,93.3,77.8,92.3,76.6,92.3z M74.5,114.6H51.9V96.5h22.6V114.6z"/>
		</g>
	</g>
	<g>
		<g>
			<path class="st1" d="M123.4,103.5H92.2c-1.2,0-2.1,0.9-2.1,2.1c0,1.2,0.9,2.1,2.1,2.1h31.2c1.2,0,2.1-0.9,2.1-2.1
				C125.5,104.4,124.6,103.5,123.4,103.5z"/>
		</g>
	</g>
	<g>
		<g>
			<path class="st1" d="M123.4,92.3H92.2c-1.2,0-2.1,0.9-2.1,2.1c0,1.2,0.9,2.1,2.1,2.1h31.2c1.2,0,2.1-0.9,2.1-2.1
				C125.5,93.3,124.6,92.3,123.4,92.3z"/>
		</g>
	</g>
	<g>
		<g>
			<path class="st1" d="M123.4,114.6H92.2c-1.2,0-2.1,0.9-2.1,2.1c0,1.2,0.9,2.1,2.1,2.1h31.2c1.2,0,2.1-0.9,2.1-2.1
				C125.5,115.6,124.6,114.6,123.4,114.6z"/>
		</g>
	</g>
	<g>
		<g>
			<path class="st1" d="M123.4,125.8H92.2c-1.2,0-2.1,0.9-2.1,2.1s0.9,2.1,2.1,2.1h31.2c1.2,0,2.1-0.9,2.1-2.1
				S124.6,125.8,123.4,125.8z"/>
		</g>
	</g>
	<g>
		<g>
			<path class="st1" d="M78.8,125.8H47.6c-1.2,0-2.1,0.9-2.1,2.1s0.9,2.1,2.1,2.1h31.2c1.2,0,2.1-0.9,2.1-2.1S80,125.8,78.8,125.8z"
				/>
		</g>
	</g>
	<g>
		<g>
			<path class="st1" d="M78.8,136.9H47.6c-1.2,0-2.1,0.9-2.1,2.1c0,1.2,0.9,2.1,2.1,2.1h31.2c1.2,0,2.1-0.9,2.1-2.1
				C80.9,137.8,80,136.9,78.8,136.9z"/>
		</g>
	</g>
	<g>
		<g>
			<path class="st1" d="M123.4,136.9H92.2c-1.2,0-2.1,0.9-2.1,2.1c0,1.2,0.9,2.1,2.1,2.1h31.2c1.2,0,2.1-0.9,2.1-2.1
				C125.5,137.8,124.6,136.9,123.4,136.9z"/>
		</g>
	</g>
</g>
</svg>
